<svg id="Layer_1" data-name="Layer 1" xmlns="http://www.w3.org/2000/svg" viewBox="0 0 18 14"><defs><style>.cls-1{fill:#8698a6;}</style></defs><path class="cls-1" d="M10.21.51H7.48A5.09,5.09,0,0,0,2.34,5.64a4.88,4.88,0,0,0,4.92,4.85V13a.57.57,0,0,0,.07.27.52.52,0,0,0,.42.22A.54.54,0,0,0,8,13.43c.17-.11,4.26-2.73,5.32-3.63a5.55,5.55,0,0,0,2-4.15h0A5.08,5.08,0,0,0,10.21.51ZM12.7,9.05c-.75.63-3.2,2.24-4.46,3V10a.49.49,0,0,0-.49-.5H7.49A3.89,3.89,0,0,1,3.33,5.64,4.1,4.1,0,0,1,7.48,1.49h2.73a4.1,4.1,0,0,1,4.14,4.14A4.55,4.55,0,0,1,12.7,9.05Z"/></svg>