<svg id="Layer_1" data-name="Layer 1" xmlns="http://www.w3.org/2000/svg" viewBox="0 0 18 14"><defs><style>.cls-1{fill:#8698a6;}</style></defs><path class="cls-1" d="M8.84,13.23h0c-1.7,0-6.6-4.47-6.6-8.66A3.77,3.77,0,0,1,5.78.78a3.83,3.83,0,0,1,3.06,1.8A3.85,3.85,0,0,1,11.9.78a3.78,3.78,0,0,1,3.56,3.79c0,4.19-4.91,8.63-6.61,8.66ZM5.78,1.77a2.77,2.77,0,0,0-2.57,2.8c0,3.78,4.63,7.63,5.63,7.67s5.63-3.89,5.63-7.67a2.76,2.76,0,0,0-2.57-2.8c-1.66,0-2.59,1.93-2.6,2a.51.51,0,0,1-.91,0S7.45,1.77,5.78,1.77Z"/></svg>