<svg id="Layer_1" data-name="Layer 1" xmlns="http://www.w3.org/2000/svg" viewBox="0 0 18 14"><defs><style>.cls-1{fill:#8698a6;}</style></defs><path class="cls-1" d="M17.25,9.24a.5.5,0,0,0-.7,0l-1.67,1.67V3.75a2.47,2.47,0,0,0-2.47-2.47H8a.49.49,0,1,0,0,1h4.38a1.49,1.49,0,0,1,1.48,1.49v7.16L12.21,9.24a.49.49,0,0,0-.69,0,.48.48,0,0,0,0,.7L14,12.45a.48.48,0,0,0,.7,0l2.52-2.51A.5.5,0,0,0,17.25,9.24Z"/><path class="cls-1" d="M9.65,11.74H5.28A1.48,1.48,0,0,1,3.8,10.26V3.09L5.47,4.77a.51.51,0,0,0,.7,0,.5.5,0,0,0,0-.7L3.65,1.55a.5.5,0,0,0-.7,0L.44,4.07a.48.48,0,0,0,0,.7.49.49,0,0,0,.69,0L2.81,3.09v7.17a2.48,2.48,0,0,0,2.47,2.47H9.65a.5.5,0,1,0,0-1Z"/></svg>