<svg id="Layer_1" data-name="Layer 1" xmlns="http://www.w3.org/2000/svg" viewBox="0 0 18 14"><defs><style>.cls-1{fill:#8698a6;}</style></defs><path class="cls-1" d="M12.34,4.08,9.18.92a.46.46,0,0,0-.67,0L5.35,4.08a.46.46,0,0,0,0,.67.48.48,0,0,0,.67,0L8.37,2.4V8.84a.47.47,0,0,0,.47.47.48.48,0,0,0,.48-.47V2.4l2.35,2.35a.47.47,0,0,0,.33.14.49.49,0,0,0,.34-.14A.48.48,0,0,0,12.34,4.08Z"/><path class="cls-1" d="M13.71,13.23H4a1.45,1.45,0,0,1-1.45-1.45V8.21a.48.48,0,1,1,1,0v3.57a.5.5,0,0,0,.5.5h9.74a.5.5,0,0,0,.51-.5V8.21a.47.47,0,1,1,.94,0v3.57A1.45,1.45,0,0,1,13.71,13.23Z"/></svg>